Coordinates
version=1
nRows=16
nColumns=33
inDegrees=yes

Units are S.I. units (second, meters, Newtons, ...)
Angles are in degrees.

endheader
time	ground_thorax_rot_x	ground_thorax_rot_y	ground_thorax_rot_z	ground_thorax_tx	ground_thorax_ty	ground_thorax_tz	clav_prot_r	clav_elev_r	scapula_abduction_r	scapula_elevation_r	scapula_upward_rot_r	scapula_winging_r	shoulder_elv_r	plane_of_elev_r	axial_rot_r	elbow_flexion_r	pro_sup_r	wrist_flex_r	wrist_dev_r	clav_prot_l	clav_elev_l	scapula_abduction_l	scapula_elevation_l	scapula_upward_rot_l	scapula_winging_l	shoulder_elv_l	plane_of_elev_l	axial_rot_l	elbow_flexion_l	pro_sup_l	wrist_flex_l	wrist_dev_l
      4.28000000	     32.87075199	     24.64182195	     34.70075812	    -88.39794078	    784.62076628	      6.27932963	     15.65263533	     38.36557916	     37.09952764	     45.00000000	    -45.00000000	   1356.76618813	  -2992.31411388	    149.15645892	   -106.25509848	    740.87308482	    205.95764204	      7.78278032	      2.19289679	     11.05396859	    -45.00000000	    -38.06804024	     45.00000000	    -45.00000000	  -1706.19430425	   -645.32520987	     14.79786963	    -73.44569985	   1820.94013992	    201.15796886	     -4.00742116	     -6.37554718
      4.29000000	     32.47719038	     25.18310098	     35.52158054	    -83.30055397	    782.18036894	      6.44338502	     15.62790830	     38.36529470	     36.90976051	     45.00000000	    -45.00000000	   1357.05042904	  -2992.68945848	    149.37947138	   -104.52503116	    740.56811956	    207.22433425	      7.62555841	      2.07933461	     11.08164039	    -45.00000000	    -38.01073564	     45.00000000	    -45.00000000	  -1706.44906135	   -645.49586130	     14.43712562	    -74.99905090	   1820.65217814	    201.88752668	     -4.17416580	     -6.28459147
      4.30000000	     31.86230870	     25.87891497	     36.57361153	    -78.36301392	    779.95970768	      6.63205494	     15.11534992	     38.14187105	     36.31829796	     45.00000000	    -45.00000000	   1357.46965065	  -2992.89610424	    149.53724768	   -102.77691360	    740.29975294	    208.22420000	      7.46493517	      1.85907842	     11.55106002	    -45.00000000	    -38.28749858	     45.00000000	    -45.00000000	  -1706.53369559	   -645.74813815	     14.02834898	    -76.77314902	   1820.27325988	    202.40426586	     -4.52828734	     -6.19085690
      4.31000000	     31.59640515	     26.26619262	     37.26384972	    -73.62810667	    777.98151540	      6.83435725	     15.50482182	     38.33057472	     36.34809003	     45.00000000	    -45.00000000	   1357.75967683	  -2993.20461501	    149.89545335	   -100.96573382	    739.99077812	    209.36996279	      7.33193766	      1.83999382	     11.13791963	    -45.00000000	    -37.96284718	     45.00000000	    -45.00000000	  -1706.89005067	   -645.84514412	     13.60267497	    -78.09851796	   1820.10562984	    203.02430822	     -4.50718283	     -6.13695843
      4.32000000	     31.15197479	     26.69205475	     38.01949472	    -69.13294762	    776.27156078	      7.04382811	     15.46765231	     38.31489265	     36.05530790	     45.00000000	    -45.00000000	   1358.09990968	  -2993.46764871	    150.08812846	    -99.29939413	    739.72358897	    210.48638241	      7.17904837	      1.74494541	     11.15549566	    -45.00000000	    -37.96944101	     45.00000000	    -45.00000000	  -1707.11346255	   -645.96390802	     13.21782889	    -79.51548064	   1819.77911876	    203.55345518	     -4.63968754	     -6.08332329
      4.33000000	     30.77841321	     27.06407506	     38.69947180	    -64.90569557	    774.84912179	      7.25539442	     15.42978447	     38.28192079	     35.91943238	     45.00000000	    -45.00000000	   1358.40723184	  -2993.77870041	    150.40945948	    -97.71795769	    739.43290199	    211.61652490	      7.03196671	      1.67733465	     11.14659302	    -45.00000000	    -37.90835787	     45.00000000	    -45.00000000	  -1707.30852761	   -646.12836493	     12.85592961	    -80.76294878	   1819.51759327	    204.07146573	     -4.78480328	     -6.01054982
      4.34000000	     30.35554435	     27.41964282	     39.36147058	    -60.96322577	    773.73593835	      7.47312133	     15.20858911	     38.17981009	     35.63415875	     45.00000000	    -45.00000000	   1358.70948535	  -2994.03011904	    150.59514744	    -96.28223804	    739.15303264	    212.67166204	      6.88890580	      1.57699552	     11.32875996	    -45.00000000	    -38.06088088	     45.00000000	    -45.00000000	  -1707.46680620	   -646.30367469	     12.51655076	    -82.01042998	   1819.19558852	    204.43942981	     -4.97210026	     -5.96422645
      4.35000000	     30.03657529	     27.67536460	     39.89669981	    -57.31421737	    772.94373321	      7.70340472	     15.23327682	     38.17951752	     35.44306496	     45.00000000	    -45.00000000	   1359.04142941	  -2994.25209132	    150.81084308	    -94.98195126	    738.84444229	    213.80425770	      6.75472086	      1.53928630	     11.27235671	    -45.00000000	    -37.98131789	     45.00000000	    -45.00000000	  -1707.68159160	   -646.43395663	     12.20471825	    -82.99367553	   1818.89378112	    204.73730805	     -5.03103004	     -5.96689575
      4.36000000	     29.45209623	     28.09289259	     40.83008472	    -53.96629824	    772.47465297	      7.95345951	     14.79374161	     37.88899064	     35.16004416	     45.00000000	    -45.00000000	   1359.35178194	  -2994.52583227	    151.16336751	    -93.91330226	    738.50053747	    214.78576330	      6.64440325	      1.46628199	     11.68034522	    -45.00000000	    -38.02908523	     45.00000000	    -45.00000000	  -1707.57710013	   -646.65378998	     11.93521371	    -83.85104323	   1818.54071387	    204.87223409	     -5.18530749	     -5.98545242
      4.37000000	     29.21275225	     28.17716503	     41.12480566	    -50.92828933	    772.30980598	      8.22351815	     14.96923523	     37.93627999	     35.05977684	     45.00000000	    -45.00000000	   1359.67742771	  -2994.70893742	    151.31848733	    -92.87066400	    738.32587931	    215.85477995	      6.52469026	      1.49305435	     11.51218891	    -45.00000000	    -38.01188191	     45.00000000	    -45.00000000	  -1707.85568594	   -646.71162462	     11.69651483	    -84.49039799	   1818.29043720	    204.89111093	     -5.16334053	     -6.05955744
      4.38000000	     29.28934813	     28.00257021	     41.03372271	    -48.21531941	    772.41864470	      8.51153528	     15.25137313	     38.10752309	     35.17828930	     45.00000000	    -45.00000000	   1359.83587540	  -2994.82792498	    151.22511758	    -91.93635790	    738.16999980	    217.30113889	      6.37227450	      1.57614518	     11.18272338	    -45.00000000	    -37.93951791	     45.00000000	    -45.00000000	  -1708.22129494	   -646.73736437	     11.53378204	    -84.94202080	   1818.21286649	    204.75298832	     -5.16251332	     -6.12345857
      4.39000000	     28.93744004	     28.25216931	     41.54280484	    -45.83302277	    772.76000748	      8.81453868	     14.97490261	     37.93424401	     35.02117852	     45.00000000	    -45.00000000	   1360.07871850	  -2995.00448018	    151.49656343	    -91.30619413	    737.85482822	    218.65018148	      6.25264633	      1.61590983	     11.48067536	    -45.00000000	    -37.95963946	     45.00000000	    -45.00000000	  -1708.24387696	   -646.95739853	     11.44812094	    -85.15849655	   1818.00097749	    204.44318254	     -5.22835438	     -6.23307358
      4.40000000	     28.88093626	     28.17714667	     41.56187651	    -43.79140764	    773.28758340	      9.12843676	     15.15012274	     37.99442003	     35.08406918	     45.00000000	    -45.00000000	   1360.23507442	  -2995.11890691	    151.52187774	    -90.75094597	    737.69356698	    220.21889459	      6.11340630	      1.75256966	     11.28672655	    -45.00000000	    -37.94360546	     45.00000000	    -45.00000000	  -1708.51389051	   -647.01611330	     11.41225259	    -85.15999028	   1817.90814478	    203.85274640	     -5.22466875	     -6.38995631
      4.41000000	     28.93085925	     28.02636157	     41.46824683	    -42.10027068	    773.95224183	      9.44946043	     15.33799580	     38.10046239	     35.21795896	     45.00000000	    -45.00000000	   1360.29391607	  -2995.16831654	    151.45093068	    -90.34779714	    737.54373745	    222.20363229	      5.93944541	      1.95077056	     11.07094066	    -45.00000000	    -37.82960758	     45.00000000	    -45.00000000	  -1708.76785673	   -647.06894501	     11.48643351	    -84.85644949	   1817.96252703	    202.79047058	     -5.24898991	     -6.59741517
      4.42000000	     29.07597607	     27.79832577	     41.14553685	    -40.76297999	    774.71004108	      9.77642740	     15.57066877	     38.12135853	     35.40175155	     45.00000000	    -45.00000000	   1360.45241750	  -2994.45189455	    148.67930410	   -139.24522444	    728.44304020	    391.01456575	     17.68526153	     14.92880692	     10.77024510	    -45.00000000	    -37.80836351	     45.00000000	    -45.00000000	  -1709.14756224	   -653.61571905	     19.66225467	    -30.01094098	   1803.29009527	     41.04357693	     10.94920981	    -21.00645321
      4.43000000	     28.53267731	     28.16455969	     41.93410228	    -39.78187681	    775.51941229	     10.10937731	     15.23697574	     37.96484978	     35.06918128	     45.00000000	    -45.00000000	   1360.69489601	  -2994.34900844	    148.98196476	   -138.73104578	    728.49437317	    391.36726590	     17.69554554	     14.76648954	     11.42016497	    -45.00000000	    -38.03639710	     45.00000000	    -45.00000000	  -1708.88280208	   -653.64453753	     19.57983440	    -30.88989484	   1803.32000790	     40.76917387	     10.92708382	    -20.96950558
